<?xml version="1.0" standalone="no"?>
<!DOCTYPE svg PUBLIC "-//W3C//DTD SVG 20010904//EN"
 "http://www.w3.org/TR/2001/REC-SVG-20010904/DTD/svg10.dtd">
<svg version="1.0" xmlns="http://www.w3.org/2000/svg"
 width="606.000000pt" height="606.000000pt" viewBox="0 0 606.000000 606.000000"
 preserveAspectRatio="xMidYMid meet">
<metadata>
Created by potrace 1.14, written by Peter Selinger 2001-2017
</metadata>
<g transform="translate(0.000000,606.000000) scale(0.100000,-0.100000)"
fill="#000000" stroke="none">
<path d="M3795 5808 c-325 -58 -590 -265 -763 -598 -47 -90 -116 -270 -107
-278 2 -3 7 7 11 22 3 14 10 26 15 26 5 0 9 4 9 10 0 22 91 140 166 216 83 83
187 160 284 209 54 27 171 74 200 80 8 2 33 8 55 13 77 21 101 24 225 27 185
4 314 -23 462 -95 99 -49 152 -86 227 -157 162 -156 282 -407 307 -645 3 -29
7 -64 10 -78 6 -35 6 -255 -1 -312 -33 -307 -169 -587 -400 -822 -137 -140
-261 -235 -451 -349 -265 -157 -605 -292 -946 -373 -84 -20 -159 -38 -165 -40
-10 -3 -13 -102 -13 -453 0 -505 -9 -457 75 -420 22 9 81 35 130 57 292 128
632 320 880 495 507 359 869 778 1072 1242 63 142 134 406 151 556 9 83 9 336
0 419 -20 189 -67 349 -158 535 -129 267 -327 478 -560 599 -78 40 -185 82
-235 92 -11 2 -53 10 -94 18 -81 16 -307 18 -386 4z"/>
<path d="M1749 4885 c-2 -2 -31 -6 -64 -10 -184 -20 -417 -125 -569 -256 -252
-218 -441 -568 -492 -909 -3 -19 -8 -46 -11 -60 -11 -52 -10 -377 2 -455 24
-156 27 -170 59 -289 30 -109 75 -225 136 -352 316 -656 981 -1226 1920 -1646
80 -36 155 -68 168 -72 l22 -7 0 450 0 449 -97 22 c-54 12 -109 25 -123 30
-14 5 -41 12 -60 16 -129 25 -461 151 -658 249 -694 345 -1046 826 -1045 1430
0 63 11 212 18 245 3 14 8 39 11 55 21 117 71 257 128 358 74 133 203 266 331
342 66 39 193 91 245 100 18 3 36 8 40 10 13 8 136 19 210 19 369 0 725 -189
930 -495 33 -50 60 -88 60 -85 0 3 -10 34 -21 68 -30 90 -108 243 -170 335
-70 104 -225 259 -307 307 -95 55 -218 109 -274 120 -13 2 -45 10 -73 16 -47
11 -308 24 -316 15z"/>
<path d="M3450 1523 c-1 -32 -2 -202 -3 -377 l-2 -320 -260 0 -260 -1 -3 -263
-2 -262 27 0 c44 -1 435 -1 470 -1 l32 1 0 223 c0 122 0 240 0 263 l1 40 373
0 372 0 5 220 c3 120 4 290 2 377 l-3 157 -374 0 -375 0 0 -57z"/>
<path d="M4300 562 l0 -188 188 1 187 0 2 188 3 187 -190 0 -190 0 0 -188z"/>
</g>
</svg>
